<?xml version="1.0" encoding="utf-8"?>
<svg viewBox="0 0 512 512" fill="#2E8555" xmlns="http://www.w3.org/2000/svg">
  <g transform="matrix(1, 0, 0, 1, 7.105427357601002e-15, 7.105427357601002e-15)">
    <g>
      <path d="M511.739,209.093L485.904,96.418c-1.082-4.723-4.763-6.418-6.295-6.927c-0.659-0.22-1.768-0.5-3.11-0.5 c-1.781,0-3.973,0.495-6.081,2.282l-16.449,13.961c-1.562,1.325-3.465,2.182-5.492,2.472l-14.677,2.103l25.207,109.933 l14.128-4.503c1.95-0.622,4.039-0.679,6.02-0.167l20.889,5.399c4.699,1.214,7.892-1.275,9.048-2.4 C510.247,216.946,512.823,213.817,511.739,209.093z"/>
    </g>
  </g>
  <g transform="matrix(1, 0, 0, 1, 7.105427357601002e-15, 7.105427357601002e-15)">
    <g>
      <path d="M412.209,112.902l-306.747,43.941c-23.801,3.251-44.372,15.886-57.992,35.588c-11.381,16.464-16.404,35.726-14.633,55.235 l-20.176,4.627c-0.396,0.09-0.776,0.21-1.157,0.328c-8.089,2.488-13.01,10.826-11.089,19.206 c1.731,7.55,8.446,12.662,15.875,12.662c1.206,0,2.432-0.135,3.658-0.416l0.263-0.06l21.665-4.969 c5.99,11.692,14.631,21.757,25.453,29.547c-0.003-0.363-0.014-0.724-0.014-1.087c0-75.674,61.566-137.24,137.24-137.24 c58.915,0,109.273,37.318,128.691,89.555l104.977-33.456L412.209,112.902z"/>
    </g>
  </g>
  <path d="M 303.372 341.929 C 307.14 331.143 309.196 319.56 309.196 307.504 C 309.196 295.448 307.14 283.865 303.372 273.079 C 303.28 272.755 303.171 272.439 303.039 272.135 C 288.505 231.79 249.848 202.864 204.557 202.864 C 159.266 202.864 120.608 231.79 106.075 272.135 C 105.943 272.44 105.833 272.755 105.742 273.079 C 101.974 283.865 99.918 295.448 99.918 307.504 C 99.918 319.56 101.974 331.143 105.742 341.929 C 105.834 342.253 105.943 342.569 106.075 342.873 C 120.609 383.219 159.266 412.144 204.557 412.144 C 249.848 412.144 288.505 383.218 303.039 342.873 C 303.171 342.569 303.28 342.254 303.372 341.929 Z M 204.557 397.145 C 200.572 397.145 194.147 389.933 188.777 373.821 C 186.185 366.046 184.11 357.108 182.598 347.385 L 226.516 347.385 C 225.004 357.108 222.929 366.045 220.338 373.821 C 214.967 389.933 208.542 397.145 204.557 397.145 Z M 180.778 332.385 C 180.057 324.387 179.676 316.043 179.676 307.504 C 179.676 298.965 180.057 290.621 180.778 282.623 L 228.335 282.623 C 229.056 290.621 229.437 298.965 229.437 307.504 C 229.437 316.043 229.056 324.387 228.335 332.385 L 180.778 332.385 Z M 114.917 307.505 C 114.917 298.875 116.146 290.527 118.433 282.624 L 165.733 282.624 C 165.032 290.787 164.676 299.153 164.676 307.505 C 164.676 315.857 165.031 324.223 165.733 332.386 L 118.433 332.386 C 116.146 324.482 114.917 316.135 114.917 307.505 Z M 204.557 217.864 C 208.542 217.864 214.968 225.076 220.338 241.188 C 222.929 248.963 225.005 257.901 226.516 267.623 L 182.597 267.623 C 184.109 257.9 186.184 248.963 188.776 241.188 C 194.147 225.076 200.572 217.864 204.557 217.864 Z M 243.38 282.624 L 290.68 282.624 C 292.967 290.527 294.196 298.875 294.196 307.505 C 294.196 316.135 292.967 324.483 290.68 332.386 L 243.38 332.386 C 244.081 324.223 244.437 315.857 244.437 307.505 C 244.437 299.153 244.081 290.787 243.38 282.624 Z M 284.819 267.624 L 241.659 267.624 C 238.991 249.227 234.414 232.722 227.993 220.98 C 252.888 227.729 273.513 244.96 284.819 267.624 Z M 181.12 220.979 C 174.699 232.721 170.122 249.226 167.454 267.624 L 124.294 267.624 C 135.601 244.96 156.225 227.729 181.12 220.979 Z M 124.294 347.385 L 167.454 347.385 C 170.122 365.782 174.699 382.287 181.12 394.03 C 156.225 387.28 135.601 370.05 124.294 347.385 Z M 227.993 394.03 C 234.414 382.288 238.991 365.783 241.659 347.385 L 284.819 347.385 C 273.513 370.05 252.888 387.28 227.993 394.03 Z" transform="matrix(1, 0, 0, 1, 7.105427357601002e-15, 7.105427357601002e-15)"/>
</svg>