<?xml version="1.0" encoding="utf-8"?>
<svg viewBox="0 0 512 512" fill="#000000" xmlns="http://www.w3.org/2000/svg">
  <g transform="matrix(1, 0, 0, 1, 7.105427357601002e-15, 7.105427357601002e-15)">
    <g>
      <path d="M511.739,209.093L485.904,96.418c-1.082-4.723-4.763-6.418-6.295-6.927c-0.659-0.22-1.768-0.5-3.11-0.5 c-1.781,0-3.973,0.495-6.081,2.282l-16.449,13.961c-1.562,1.325-3.465,2.182-5.492,2.472l-14.677,2.103l25.207,109.933 l14.128-4.503c1.95-0.622,4.039-0.679,6.02-0.167l20.889,5.399c4.699,1.214,7.892-1.275,9.048-2.4 C510.247,216.946,512.823,213.817,511.739,209.093z"/>
    </g>
  </g>
  <g transform="matrix(1, 0, 0, 1, 7.105427357601002e-15, 7.105427357601002e-15)">
    <g>
      <path d="M412.209,112.902l-306.747,43.941c-23.801,3.251-44.372,15.886-57.992,35.588c-11.381,16.464-16.404,35.726-14.633,55.235 l-20.176,4.627c-0.396,0.09-0.776,0.21-1.157,0.328c-8.089,2.488-13.01,10.826-11.089,19.206 c1.731,7.55,8.446,12.662,15.875,12.662c1.206,0,2.432-0.135,3.658-0.416l0.263-0.06l21.665-4.969 c5.99,11.692,14.631,21.757,25.453,29.547c-0.003-0.363-0.014-0.724-0.014-1.087c0-75.674,61.566-137.24,137.24-137.24 c58.915,0,109.273,37.318,128.691,89.555l104.977-33.456L412.209,112.902z"/>
    </g>
  </g>
  <path d="M 204.557 186.223 C 137.575 186.223 83.276 240.522 83.276 307.504 C 83.276 374.486 137.575 428.785 204.557 428.785 C 271.539 428.785 325.838 374.486 325.838 307.504 C 325.838 240.522 271.539 186.223 204.557 186.223 Z M 98.82 315.084 L 124.83 315.084 C 125.408 327.669 127.311 339.184 130.264 349.524 L 107.152 349.524 C 102.525 338.84 99.685 327.236 98.82 315.084 Z M 241.972 299.924 C 241.401 287.74 239.957 276.2 238.002 265.484 L 262.848 265.484 C 266.155 275.654 268.425 287.122 269.11 299.924 L 241.972 299.924 Z M 185.439 349.524 C 183.3 337.712 182.251 326.181 182.055 315.084 L 227.06 315.084 C 226.865 326.181 225.814 337.712 223.675 349.524 L 185.439 349.524 Z M 220.372 364.685 C 216.818 378.329 211.674 392.238 204.556 406.177 C 197.439 392.238 192.295 378.329 188.742 364.685 L 220.372 364.685 Z M 182.262 299.924 C 182.863 287.671 184.411 276.124 186.468 265.484 L 222.646 265.484 C 224.704 276.124 226.253 287.671 226.854 299.924 L 182.262 299.924 Z M 189.875 250.326 C 194.614 231.831 200.466 217.24 204.556 208.256 C 208.647 217.24 214.501 231.831 219.239 250.326 L 189.875 250.326 Z M 234.788 250.326 C 229.953 230.283 223.742 214.184 219.133 203.777 C 224.862 207.854 243.895 222.922 256.879 250.326 L 234.788 250.326 Z M 189.98 203.776 C 185.371 214.182 179.162 230.283 174.325 250.326 L 152.233 250.326 C 165.219 222.919 184.254 207.851 189.98 203.776 Z M 171.113 265.486 C 169.158 276.2 167.714 287.741 167.144 299.926 L 140.003 299.926 C 140.686 287.123 142.956 275.654 146.265 265.486 L 171.113 265.486 Z M 124.847 299.924 L 98.82 299.924 C 99.685 287.773 102.523 276.171 107.151 265.484 L 130.37 265.484 C 127.394 275.823 125.453 287.33 124.847 299.924 Z M 139.994 315.084 L 166.935 315.084 C 167.109 326.199 168.043 337.716 170.026 349.524 L 146.271 349.524 C 142.937 339.328 140.66 327.858 139.994 315.084 Z M 173.165 364.685 C 176.884 380.122 182.407 395.899 190.364 411.738 C 184.994 407.893 165.475 392.54 152.24 364.685 L 173.165 364.685 Z M 218.731 411.773 C 226.699 395.92 232.228 380.133 235.95 364.685 L 257.027 364.685 C 243.83 392.683 224.229 407.909 218.731 411.773 Z M 239.09 349.524 C 241.072 337.716 242.007 326.199 242.179 315.084 L 269.125 315.084 C 268.474 327.88 266.232 339.349 262.946 349.524 L 239.09 349.524 Z M 284.281 315.084 L 310.294 315.084 C 309.429 327.236 306.591 338.838 301.964 349.524 L 278.849 349.524 C 281.802 339.184 283.703 327.669 284.281 315.084 Z M 284.266 299.924 C 283.658 287.329 281.719 275.823 278.743 265.484 L 301.964 265.484 C 306.592 276.17 309.431 287.773 310.295 299.924 L 284.266 299.924 Z M 293.814 250.326 L 273.398 250.326 C 266.622 234.003 257.788 221.089 249.474 211.497 C 267.662 220.041 283.029 233.545 293.814 250.326 Z M 159.634 211.498 C 151.322 221.092 142.489 234.003 135.713 250.326 L 115.3 250.326 C 126.085 233.546 141.451 220.043 159.634 211.498 Z M 115.3 364.685 L 135.591 364.685 C 142.264 380.841 150.973 393.71 159.229 403.313 C 141.223 394.758 126.005 381.337 115.3 364.685 Z M 249.89 403.313 C 258.143 393.709 266.85 380.84 273.524 364.685 L 293.814 364.685 C 283.111 381.335 267.893 394.756 249.89 403.313 Z" style="" transform="matrix(1, 0, 0, 1, 7.105427357601002e-15, 7.105427357601002e-15)"/>
</svg>